HIERARCHY
ROOT root
{
	OFFSET 0.000000 0.000000 0.000000
	CHANNELS 6 Xposition Yposition Zposition Zrotation Yrotation Xrotation
	JOINT lhip
	{
		OFFSET 0.058581 -0.082280 -0.017664
		CHANNELS 3 Zrotation Yrotation Xrotation
		JOINT lknee
		{
			OFFSET 0.043451 -0.386469 0.008037
			CHANNELS 3 Zrotation Yrotation Xrotation
			JOINT lankle
			{
				OFFSET -0.014790 -0.426874 -0.037428
				CHANNELS 3 Zrotation Yrotation Xrotation
				JOINT ltoe
				{
					OFFSET 0.041054 -0.060286 0.122042
					CHANNELS 3 Zrotation Yrotation Xrotation
					End Site
					{
						OFFSET 0.000000 0.000000 0.000000
					}
				}
			}
		}
	}
	JOINT rhip
	{
		OFFSET -0.060310 -0.090513 -0.013543
		CHANNELS 3 Zrotation Yrotation Xrotation
		JOINT rknee
		{
			OFFSET -0.043257 -0.383688 -0.004843
			CHANNELS 3 Zrotation Yrotation Xrotation
			JOINT rankle
			{
				OFFSET 0.019056 -0.420046 -0.034562
				CHANNELS 3 Zrotation Yrotation Xrotation
				JOINT rtoe
				{
					OFFSET -0.034840 -0.062106 0.130323
					CHANNELS 3 Zrotation Yrotation Xrotation
					End Site
					{
						OFFSET 0.000000 0.000000 0.000000
					}
				}
			}
		}
	}
	JOINT lowerback
	{
		OFFSET 0.004439 0.124404 -0.038385
		CHANNELS 3 Zrotation Yrotation Xrotation
		JOINT upperback
		{
			OFFSET 0.004488 0.137956 0.026820
			CHANNELS 3 Zrotation Yrotation Xrotation
			JOINT chest
			{
				OFFSET -0.002265 0.056032 0.002855
				CHANNELS 3 Zrotation Yrotation Xrotation
				JOINT lowerneck
				{
					OFFSET -0.013390 0.211636 -0.033468
					CHANNELS 3 Zrotation Yrotation Xrotation
					JOINT upperneck
					{
						OFFSET 0.010113 0.088937 0.050410
						CHANNELS 3 Zrotation Yrotation Xrotation
						End Site
						{
							OFFSET 0.000000 0.000000 0.000000
						}
					}
				}
				JOINT lclavicle
				{
					OFFSET 0.071702 0.114000 -0.018898
					CHANNELS 3 Zrotation Yrotation Xrotation
					JOINT lshoulder
					{
						OFFSET 0.122921 0.045205 -0.019046
						CHANNELS 3 Zrotation Yrotation Xrotation
						JOINT lelbow
						{
							OFFSET 0.255332 -0.015649 -0.022946
							CHANNELS 3 Zrotation Yrotation Xrotation
							JOINT lwrist
							{
								OFFSET 0.265709 0.012698 -0.007375
								CHANNELS 3 Zrotation Yrotation Xrotation
								End Site
								{
									OFFSET 0.000000 0.000000 0.000000
								}
							}
						}
					}
				}
				JOINT rclavicle
				{
					OFFSET -0.082954 0.112472 -0.023707
					CHANNELS 3 Zrotation Yrotation Xrotation
					JOINT rshoulder
					{
						OFFSET -0.113228 0.046853 -0.008472
						CHANNELS 3 Zrotation Yrotation Xrotation
						JOINT relbow
						{
							OFFSET -0.260127 -0.014369 -0.031269
							CHANNELS 3 Zrotation Yrotation Xrotation
							JOINT rwrist
							{
								OFFSET -0.269108 0.006794 -0.006027
								CHANNELS 3 Zrotation Yrotation Xrotation
								End Site
								{
									OFFSET 0.000000 0.000000 0.000000
								}
							}
						}
					}
				}
			}
		}
	}
}
MOTION
Frames: 16
Frame Time: 0.033333
0.511736 0.201389 0.990302 93.488053 3.262161 98.414593 7.016074 3.254864 -6.326792 3.306299 -4.188991 -6.816379 -1.839664 9.509632 -3.049861 0.000000 -0.000000 0.000000 -1.608049 -3.137371 -7.495832 -1.571745 0.394872 0.579963 4.876972 -8.656973 -3.851798 0.000000 -0.000000 0.000000 -1.112589 1.488529 -3.500880 4.364746 -3.673668 -0.224867 0.060901 0.711111 -8.572645 0.030000 -13.388992 7.752544 5.487288 -13.217960 0.399979 -23.247850 1.900086 -4.238780 -59.211830 -4.043388 30.592929 1.037060 -8.131759 16.086423 -9.180264 -9.236719 14.800834 23.481172 2.983114 -2.022444 53.880637 3.267419 20.744015 0.237678 6.700662 3.858872 6.416292 2.810379 0.156924 
0.511874 0.201433 0.990240 93.507899 3.282369 98.331178 7.045808 3.255279 -6.210988 3.284282 -4.237758 -6.853050 -1.815101 9.568354 -3.014477 0.000000 -0.000000 0.000000 -1.588443 -3.176006 -7.374865 -1.566640 0.518067 0.527008 4.919352 -8.679211 -3.926305 0.000000 -0.000000 0.000000 -1.064512 1.482712 -3.266156 4.312437 -3.673142 -0.584372 0.094243 0.703900 -8.314789 0.062270 -13.440687 7.669258 5.462867 -13.228170 0.431042 -23.217054 1.852550 -4.233444 -59.201261 -4.041036 30.449436 1.031104 -8.184471 16.317297 -9.234966 -9.221180 14.663333 23.546199 3.029877 -1.974794 53.793387 3.277252 20.620548 0.240919 6.749596 3.933552 6.506610 2.858393 0.210681 
0.512200 0.201317 0.989956 93.527550 3.301476 98.290172 7.089439 3.251842 -6.122305 3.273660 -4.324510 -6.924844 -1.872600 9.664782 -2.955051 0.000000 -0.000000 0.000000 -1.548056 -3.182309 -7.235781 -1.574268 0.680496 0.374029 4.857416 -8.711497 -4.045846 0.000000 -0.000000 0.000000 -1.043784 1.463083 -3.132387 4.231579 -3.666935 -0.976806 0.145718 0.696140 -7.982676 0.021165 -13.526727 7.670299 5.421572 -13.343870 0.402582 -23.003697 1.749138 -4.166339 -59.370238 -4.083712 30.309358 1.053000 -8.220254 16.634526 -9.414383 -9.152496 14.467928 23.545859 3.201529 -1.899069 53.722704 3.362360 20.495842 0.384440 6.604993 4.141938 6.803314 2.944334 0.118498 
0.513258 0.200898 0.989489 93.922878 3.257960 98.759801 7.096213 3.119118 -6.685361 3.225008 -4.410809 -6.864448 -2.053359 9.597548 -2.974577 0.000000 -0.000000 0.000000 -1.376484 -3.189583 -7.413145 -1.766517 0.544695 -0.024610 4.807941 -8.905591 -3.997023 0.000000 -0.000000 0.000000 -1.272298 1.187383 -3.964827 4.254321 -3.857485 -0.662806 0.177641 0.765864 -8.103511 -0.063594 -13.689658 7.802575 5.591764 -13.934795 0.364335 -22.669161 1.762929 -3.996361 -59.698471 -4.156270 30.346890 1.138436 -8.280878 16.512529 -9.606916 -9.003169 14.522593 23.583194 3.317276 -1.883799 53.584742 3.479339 20.444283 0.929675 6.151241 4.529364 7.260795 3.012995 0.017990 
0.513348 0.200946 0.989368 93.937488 3.247306 98.776630 7.068108 3.102268 -6.719942 3.245559 -4.423341 -6.826060 -2.043787 9.596138 -3.000569 0.000000 -0.000000 0.000000 -1.379331 -3.173190 -7.419181 -1.787818 0.528731 -0.032792 4.796230 -8.919046 -3.982606 0.000000 -0.000000 0.000000 -1.271194 1.173237 -3.958327 4.261584 -3.873881 -0.678370 0.180019 0.784035 -8.100827 -0.071113 -13.675253 7.800551 5.612588 -13.898425 0.319358 -22.677808 1.767815 -4.015329 -59.731345 -4.172607 30.348968 1.171858 -8.281711 16.468704 -9.598097 -9.006805 14.505206 23.562644 3.318869 -1.909991 53.611543 3.501168 20.443600 0.922383 6.121012 4.512230 7.273456 2.974771 0.024604 
0.513685 0.201009 0.989152 93.929496 3.235456 98.780471 7.065094 3.101708 -6.661123 3.223576 -4.425178 -6.897957 -2.044981 9.596906 -3.023475 0.000000 -0.000000 0.000000 -1.379674 -3.175918 -7.391820 -1.817745 0.492091 -0.050773 4.782642 -8.910235 -3.970242 0.000000 -0.000000 0.000000 -1.265494 1.171454 -3.961245 4.265885 -3.873256 -0.686452 0.191092 0.783909 -8.083255 -0.049955 -13.615474 7.743812 5.598167 -13.828604 0.315541 -22.694784 1.769774 -4.030866 -59.764122 -4.201402 30.318805 1.210660 -8.333439 16.432455 -9.581455 -9.069909 14.435718 23.576716 3.321854 -1.898564 53.615055 3.562397 20.424412 0.890960 6.101843 4.474924 7.306824 2.997638 -0.015584 
0.514036 0.201052 0.989088 93.927202 3.239232 98.758004 7.071639 3.110643 -6.597944 3.211486 -4.419625 -6.921320 -2.045243 9.604877 -3.030112 0.000000 -0.000000 0.000000 -1.378953 -3.186389 -7.307374 -1.817154 0.498120 -0.126073 4.774934 -8.885004 -3.960273 0.000000 -0.000000 0.000000 -1.269048 1.184519 -3.979785 4.292435 -3.886440 -0.676895 0.217620 0.776402 -8.070564 -0.066120 -13.616066 7.713296 5.570044 -13.831105 0.373506 -22.721574 1.768216 -4.041356 -59.787179 -4.212785 30.295897 1.208520 -8.343441 16.409694 -9.636615 -9.082304 14.404092 23.603439 3.332200 -1.882067 53.559250 3.587253 20.414412 0.895280 6.096429 4.490815 7.435770 3.040222 -0.028427 
0.514180 0.201106 0.988938 93.937848 3.243197 98.782545 7.073873 3.078473 -6.610465 3.233180 -4.464127 -6.926962 -2.035408 9.601031 -3.045914 0.000000 -0.000000 0.000000 -1.354012 -3.152729 -7.331708 -1.853834 0.497360 -0.121564 4.784948 -8.896777 -3.935043 0.000000 -0.000000 0.000000 -1.279023 1.170474 -3.935074 4.316885 -3.889178 -0.745301 0.240097 0.785432 -8.093985 -0.104337 -13.618409 7.732728 5.626372 -13.824983 0.361384 -22.710090 1.772593 -4.066153 -59.869523 -4.208879 30.328120 1.255911 -8.334119 16.357210 -9.618315 -9.012053 14.351185 23.559528 3.351913 -1.916716 53.632065 3.564052 20.468478 0.864919 6.053600 4.482293 7.498868 3.051912 -0.122225 
0.514372 0.201075 0.988865 93.953169 3.233288 98.785909 7.040400 3.081521 -6.593703 3.276593 -4.495489 -6.941646 -2.008982 9.597273 -3.048598 0.000000 -0.000000 0.000000 -1.337916 -3.156480 -7.319581 -1.894957 0.485350 -0.110476 4.770519 -8.913265 -3.948451 0.000000 -0.000000 0.000000 -1.327597 1.170510 -3.927867 4.347620 -3.902115 -0.732549 0.266207 0.822217 -8.148492 -0.108230 -13.731400 7.790166 5.672075 -13.838590 0.250875 -22.680581 1.731220 -4.057668 -59.911633 -4.208817 30.364020 1.205479 -8.342767 16.302261 -9.538263 -8.971415 14.364883 23.551151 3.382531 -1.917361 53.694038 3.498573 20.434439 0.834215 6.042986 4.310259 7.315127 3.045404 -0.061622 
0.514653 0.201100 0.988750 93.970702 3.215909 98.796320 7.036969 3.108697 -6.569088 3.233426 -4.501780 -6.990005 -2.023895 9.570046 -3.070339 0.000000 -0.000000 0.000000 -1.357083 -3.183707 -7.304235 -1.885655 0.481598 -0.122540 4.786678 -8.910872 -3.966650 0.000000 -0.000000 0.000000 -1.351319 1.172806 -3.964088 4.355688 -3.917234 -0.697690 0.288110 0.830521 -8.156601 -0.079833 -13.775330 7.876844 5.673385 -13.842978 0.020831 -22.674898 1.719966 -4.082482 -59.945276 -4.222873 30.370036 1.194662 -8.325719 16.268889 -9.492761 -8.953753 14.351662 23.541794 3.402200 -1.912257 53.728497 3.482753 20.434331 0.806996 6.079894 4.265536 7.269714 3.022949 -0.051792 
0.514841 0.201135 0.988735 93.972146 3.214328 98.797718 7.031102 3.113444 -6.554145 3.236322 -4.504469 -6.999763 -2.027904 9.580842 -3.077128 0.000000 -0.000000 0.000000 -1.366364 -3.186907 -7.295108 -1.874280 0.486007 -0.117208 4.784640 -8.921349 -3.977525 0.000000 -0.000000 0.000000 -1.346753 1.165020 -3.979812 4.359147 -3.913720 -0.700700 0.287754 0.836800 -8.151397 -0.059104 -13.782166 7.784240 5.668864 -13.884457 0.138573 -22.682176 1.737627 -4.081272 -59.939052 -4.234641 30.362892 1.198564 -8.342135 16.294876 -9.462937 -8.949389 14.352113 23.576792 3.389992 -1.912175 53.707225 3.499899 20.426596 0.810316 6.053830 4.264275 7.255111 3.030416 -0.042860 
0.515182 0.201143 0.988608 93.985739 3.216597 98.782029 7.003256 3.109702 -6.507071 3.310223 -4.552738 -7.025312 -2.036046 9.600671 -3.078152 0.000000 -0.000000 0.000000 -1.358109 -3.162769 -7.243808 -1.889187 0.523227 -0.130274 4.773786 -8.952204 -3.976302 0.000000 -0.000000 0.000000 -1.359130 1.130775 -3.958327 4.378984 -3.910897 -0.708360 0.312969 0.860089 -8.142076 -0.016728 -13.860836 7.554919 5.650611 -13.954755 0.338629 -22.708798 1.792896 -4.085592 -59.917294 -4.230454 30.346884 1.213670 -8.465574 16.367276 -9.517729 -8.971197 14.294991 23.568197 3.366096 -1.975665 53.665782 3.543494 20.477993 0.877891 5.984258 4.467351 7.520380 3.011823 -0.067890 
0.515418 0.201089 0.988505 94.017799 3.187128 98.801004 6.959024 3.114315 -6.538156 3.329992 -4.550586 -6.992242 -2.048304 9.563160 -3.083735 0.000000 -0.000000 0.000000 -1.396562 -3.158520 -7.223220 -1.868035 0.465840 -0.175002 4.767440 -8.954308 -3.975720 0.000000 -0.000000 0.000000 -1.414897 1.111627 -3.995745 4.414114 -3.928673 -0.649408 0.357552 0.849929 -8.181428 -0.022590 -13.890353 7.749558 5.620803 -13.860763 -0.012261 -22.716009 1.778056 -4.087398 -59.930155 -4.199632 30.364049 1.198098 -8.527355 16.275272 -9.492115 -8.969590 14.331161 23.490270 3.364706 -1.958599 53.745963 3.505583 20.453545 0.802553 6.083455 4.288187 7.315178 3.037229 -0.027509 
0.515590 0.201031 0.988476 94.026289 3.173596 98.825171 6.946223 3.113327 -6.552349 3.322181 -4.557039 -6.987226 -2.038248 9.541947 -3.093839 0.000000 -0.000000 0.000000 -1.405419 -3.169152 -7.235697 -1.868677 0.457943 -0.174962 4.782822 -8.962949 -3.997653 0.000000 -0.000000 0.000000 -1.433473 1.100605 -4.029574 4.415503 -3.939890 -0.614758 0.357558 0.863374 -8.171438 0.022095 -13.880770 7.672959 5.613579 -13.829186 -0.019878 -22.706950 1.808132 -4.133298 -59.919824 -4.218403 30.370141 1.156528 -8.529642 16.289530 -9.498715 -8.961550 14.331514 23.514664 3.338949 -2.003049 53.716595 3.528517 20.429497 0.784024 6.084358 4.237008 7.313267 3.003809 0.006547 
0.515754 0.201019 0.988315 94.015171 3.175053 98.846826 6.949081 3.119195 -6.575158 3.316449 -4.569669 -6.973603 -2.050170 9.542616 -3.135939 0.000000 -0.000000 0.000000 -1.401117 -3.160691 -7.257185 -1.874482 0.448718 -0.165192 4.773694 -8.952290 -3.996108 0.000000 -0.000000 0.000000 -1.440841 1.107387 -4.106454 4.426333 -3.958482 -0.527122 0.360465 0.859931 -8.221150 -0.004113 -13.903918 7.752010 5.583994 -13.853411 0.030045 -22.648382 1.767875 -4.087356 -60.022070 -4.239234 30.358608 1.218766 -8.439760 16.194836 -9.507384 -8.949933 14.307870 23.504690 3.420473 -1.950273 53.707900 3.574404 20.416644 0.773867 6.014531 4.175731 7.341764 3.040047 -0.039949 
0.515828 0.200942 0.988248 94.004446 3.198343 98.860149 6.937763 3.126619 -6.593135 3.387688 -4.561545 -6.962513 -2.067250 9.573008 -3.139981 0.000000 -0.000000 0.000000 -1.368322 -3.137122 -7.276308 -1.883890 0.470352 -0.155847 4.764381 -8.958244 -4.006527 0.000000 -0.000000 0.000000 -1.428712 1.123137 -4.114245 4.440504 -3.960363 -0.522313 0.356674 0.841529 -8.227648 -0.011103 -13.966854 7.756987 5.562748 -13.880513 0.118901 -22.637042 1.762066 -4.099316 -60.079817 -4.245456 30.375143 1.281007 -8.359357 16.090412 -9.514169 -8.910534 14.306386 23.530574 3.433989 -1.968357 53.679848 3.573691 20.432341 0.756069 5.973456 4.124096 7.341517 3.086740 -0.030351 
